<svg width="30" height="10" viewBox="0 0 30 10" fill="none" xmlns="http://www.w3.org/2000/svg">
<path d="M0.46784 9V0.272727H1.7846V7.86648H5.73915V9H0.46784ZM9.04383 9.14489C8.62906 9.14489 8.25406 9.06818 7.91883 8.91477C7.58361 8.75852 7.31798 8.53267 7.12196 8.23722C6.92878 7.94176 6.83219 7.57955 6.83219 7.15057C6.83219 6.78125 6.90321 6.47727 7.04525 6.23864C7.1873 6 7.37906 5.81108 7.62054 5.67188C7.86202 5.53267 8.1319 5.42756 8.4302 5.35653C8.72849 5.28551 9.03247 5.23153 9.34213 5.1946C9.73418 5.14915 10.0524 5.11222 10.2967 5.08381C10.541 5.05256 10.7186 5.00284 10.8293 4.93466C10.9401 4.86648 10.9955 4.75568 10.9955 4.60227V4.57244C10.9955 4.20028 10.8904 3.91193 10.6802 3.70739C10.4728 3.50284 10.1632 3.40057 9.75122 3.40057C9.32224 3.40057 8.98418 3.49574 8.73702 3.68608C8.4927 3.87358 8.32366 4.08239 8.22991 4.3125L7.03247 4.03977C7.17452 3.64205 7.3819 3.32102 7.65463 3.0767C7.9302 2.82955 8.24696 2.65057 8.60491 2.53977C8.96287 2.42614 9.33929 2.36932 9.73418 2.36932C9.99554 2.36932 10.2725 2.40057 10.5651 2.46307C10.8606 2.52273 11.1362 2.63352 11.3918 2.79545C11.6504 2.95739 11.862 3.18892 12.0268 3.49006C12.1916 3.78835 12.2739 4.17614 12.2739 4.65341V9H11.0296V8.10511H10.9785C10.8961 8.26989 10.7725 8.43182 10.6078 8.59091C10.443 8.75 10.2313 8.8821 9.97281 8.98722C9.71429 9.09233 9.40463 9.14489 9.04383 9.14489ZM9.32082 8.12216C9.6731 8.12216 9.97423 8.05256 10.2242 7.91335C10.4771 7.77415 10.6688 7.59233 10.7995 7.3679C10.933 7.14062 10.9998 6.89773 10.9998 6.6392V5.79545C10.9543 5.84091 10.8663 5.88352 10.7356 5.9233C10.6078 5.96023 10.4614 5.9929 10.2967 6.02131C10.1319 6.04687 9.97139 6.07102 9.81514 6.09375C9.65889 6.11364 9.52821 6.13068 9.4231 6.14489C9.17594 6.17614 8.95008 6.22869 8.74554 6.30256C8.54383 6.37642 8.3819 6.48295 8.25974 6.62216C8.14043 6.75852 8.08077 6.94034 8.08077 7.16761C8.08077 7.48295 8.19724 7.72159 8.4302 7.88352C8.66315 8.04261 8.96003 8.12216 9.32082 8.12216ZM14.0733 9V0.272727H15.3475V3.51562H15.4242C15.498 3.37926 15.6046 3.22159 15.7438 3.04261C15.883 2.86364 16.0761 2.70739 16.3233 2.57386C16.5705 2.4375 16.8972 2.36932 17.3034 2.36932C17.8318 2.36932 18.3034 2.50284 18.7182 2.76989C19.133 3.03693 19.4583 3.42187 19.694 3.92472C19.9327 4.42756 20.052 5.03267 20.052 5.74006C20.052 6.44744 19.9341 7.05398 19.6983 7.55966C19.4625 8.0625 19.1386 8.45028 18.7267 8.72301C18.3148 8.9929 17.8446 9.12784 17.3162 9.12784C16.9185 9.12784 16.5932 9.06108 16.3404 8.92756C16.0904 8.79403 15.8943 8.63778 15.7523 8.45881C15.6102 8.27983 15.5009 8.12074 15.4242 7.98153H15.3176V9H14.0733ZM15.3219 5.72727C15.3219 6.1875 15.3886 6.59091 15.5222 6.9375C15.6557 7.28409 15.8489 7.5554 16.1017 7.75142C16.3546 7.9446 16.6642 8.04119 17.0307 8.04119C17.4114 8.04119 17.7296 7.94034 17.9852 7.73864C18.2409 7.53409 18.4341 7.2571 18.5648 6.90767C18.6983 6.55824 18.7651 6.16477 18.7651 5.72727C18.7651 5.29545 18.6997 4.90767 18.569 4.56392C18.4412 4.22017 18.248 3.94886 17.9895 3.75C17.7338 3.55114 17.4142 3.4517 17.0307 3.4517C16.6614 3.4517 16.3489 3.54687 16.0932 3.73722C15.8404 3.92756 15.6486 4.19318 15.5179 4.53409C15.3872 4.875 15.3219 5.27273 15.3219 5.72727ZM24.3038 9.1321C23.6589 9.1321 23.1035 8.99432 22.6376 8.71875C22.1745 8.44034 21.8166 8.04972 21.5637 7.54688C21.3137 7.04119 21.1887 6.44886 21.1887 5.76989C21.1887 5.09943 21.3137 4.50852 21.5637 3.99716C21.8166 3.4858 22.1688 3.08665 22.6205 2.79972C23.0751 2.51278 23.6063 2.36932 24.2143 2.36932C24.5836 2.36932 24.9416 2.4304 25.2882 2.55256C25.6347 2.67472 25.9458 2.86648 26.2214 3.12784C26.497 3.3892 26.7143 3.72869 26.8734 4.14631C27.0325 4.56108 27.112 5.06534 27.112 5.65909V6.1108H21.9089V5.15625H25.8634C25.8634 4.82102 25.7953 4.52415 25.6589 4.26562C25.5225 4.00426 25.3308 3.7983 25.0836 3.64773C24.8393 3.49716 24.5524 3.42188 24.2228 3.42188C23.8649 3.42188 23.5524 3.50994 23.2853 3.68608C23.0211 3.85937 22.8166 4.08665 22.6717 4.3679C22.5296 4.64631 22.4586 4.94886 22.4586 5.27557V6.02131C22.4586 6.45881 22.5353 6.83097 22.6887 7.13778C22.845 7.4446 23.0623 7.67898 23.3407 7.84091C23.6191 8 23.9444 8.07955 24.3166 8.07955C24.558 8.07955 24.7782 8.04545 24.9771 7.97727C25.1759 7.90625 25.3478 7.80114 25.4927 7.66193C25.6376 7.52273 25.7484 7.35085 25.8251 7.14631L27.0311 7.36364C26.9345 7.71875 26.7612 8.02983 26.5112 8.29688C26.264 8.56108 25.9529 8.76705 25.5779 8.91477C25.2058 9.05966 24.7811 9.1321 24.3038 9.1321ZM29.7999 0.272727V9H28.5257V0.272727H29.7999Z" fill="#1D9BF0"/>
</svg>
